{"title":"HBO.Boxing.Klitschko.vs.Pulev.720p.HDTV.x264-NESMEURED","uid":11485035,"size":2328813621,"categoryP":"video","categoryS":"hd___tv_shows","magnet":"?xt=urn:btih:eeb122fdff16dad91d23ca8b2a2480d58af79229&amp;dn=HBO.Boxing.Klitschko.vs.Pulev.720p.HDTV.x264-NESMEURED&amp;tr=udp%3A%2F%2Ftracker.openbittorrent.com%3A80&amp;tr=udp%3A%2F%2Fopen.demonii.com%3A1337&amp;tr=udp%3A%2F%2Ftracker.coppersurfer.tk%3A6969&amp;tr=udp%3A%2F%2Fexodus.desync.com%3A6969","seeders":1,"leechers":0,"uploader":"nesmeured","files":-1,"time":1416215534,"description":"\n   General\n      Complete name : HBO.Boxing.Klitschko.vs.Pulev.720p.HDTV.x264-NESMEURED\n      Format : Matroska\n      Format version : Version 2\n      File size : 2.17 GiB\n      Duration : 52mn 40s\n      Overall bit rate mode : Variable\n      Overall bit rate : 5 894 Kbps\n      Writing application : mkvmerge v7.2.0 ('On Every Street') 32bit built on Sep 13 2014 15:42:11\n      Writing library : libebml v1.3.0 + libmatroska v1.4.1\n      \n   Video #1\n      ID : 1\n      Format : AVC\n      Format/Info : Advanced Video Codec\n      Format profile : &lt;a class=&quot;__cf_email__&quot; href=&quot;/cdn-cgi/l/email-protection&quot; data-cfemail=&quot;e5ad8c828da5a9d1cbd4&quot;&gt;[email&amp;#160;protected]&lt;/a&gt;&lt;script cf-hash='f9e31' type=&quot;text/javascript&quot;&gt;\n/* &lt;![CDATA[ */!function(){try{var t=&quot;currentScript&quot;in document?document.currentScript:function(){for(var t=document.getElementsByTagName(&quot;script&quot;),e=t.length;e--;)if(t[e].getAttribute(&quot;cf-hash&quot;))return t[e]}();if(t&amp;&amp;t.previousSibling){var e,r,n,i,c=t.previousSibling,a=c.getAttribute(&quot;data-cfemail&quot;);if(a){for(e=&quot;&quot;,r=parseInt(a.substr(0,2),16),n=2;a.length-n;n+=2)i=parseInt(a.substr(n,2),16)^r,e+=String.fromCharCode(i);e=document.createTextNode(e),c.parentNode.replaceChild(e,c)}}}catch(u){}}();/* ]]&gt; */&lt;/script&gt;\n      Format settings, CABAC : Yes\n      Format settings, ReFrames : 4 frames\n      Codec ID : V_MPEG4/ISO/AVC\n      Duration : 52mn 41s\n      Bit rate mode : Variable\n      Bit rate : 5 698 Kbps\n      Maximum bit rate : 48.0 Mbps\n      Width : 1 280 pixels\n      Height : 720 pixels\n      Display aspect ratio : 16:9\n      Frame rate mode : Constant\n      Frame rate : 60.000 fps\n      Original frame rate : 59.940 fps\n      Color space : YUV\n      Chroma subsampling : 4:2:0\n      Bit depth : 8 bits\n      Scan type : Progressive\n      Bits/(Pixel*Frame) : 0.103\n      Stream size : 2.06 GiB (95%)\n      Writing library : x264 core 142 r2479 dd79a61\n      Language : English\n      Default : Yes\n      Forced : No\n      Color primaries : BT.709\n      Transfer characteristics : BT.709\n      Matrix coefficients : BT.709\n\n   Audio #2\n      ID : 2\n      Format : AC-3\n      Format/Info : Audio Coding 3\n      Mode extension : CM (complete main)\n      Format settings, Endianness : Big\n      Codec ID : A_AC3\n      Duration : 52mn 40s\n      Bit rate mode : Constant\n      Bit rate : 192 Kbps\n      Channel(s) : 2 channels\n      Channel positions : Front: L R\n      Sampling rate : 48.0 KHz\n      Bit depth : 16 bits\n      Compression mode : Lossy\n      Stream size : 72.3 MiB (3%)\n      Language : English\n      Default : Yes\n      Forced : No","torrent":{"xt":"urn:btih:eeb122fdff16dad91d23ca8b2a2480d58af79229","amp;dn":"HBO.Boxing.Klitschko.vs.Pulev.720p.HDTV.x264-NESMEURED","amp;tr":["udp%3A%2F%2Ftracker.openbittorrent.com%3A80","udp%3A%2F%2Fopen.demonii.com%3A1337","udp%3A%2F%2Ftracker.coppersurfer.tk%3A6969","udp%3A%2F%2Fexodus.desync.com%3A6969"],"infoHash":"eeb122fdff16dad91d23ca8b2a2480d58af79229","infoHashBuffer":{"type":"Buffer","data":[238,177,34,253,255,22,218,217,29,35,202,139,42,36,128,213,138,247,146,41]},"announce":[],"urlList":[]}}